<?xml version="1.0" encoding="utf-8"?><svg xmlns="http://www.w3.org/2000/svg" version="1.1" baseProfile="tiny" width="800" height="600" viewBox="0 0 800 600"><g><g stroke="#000000" stroke-width=".98" fill="#FFFFFF"><path d="m5 475.83l8.62-3.83 4.07 1.68 3.59-3.35 6.94-.24 6.7 2.15 8.62-6.22 2.88-5.51 9.33-5.02 10.77-9.82-2.39-3.11-6.22 2.63-5.03-6.94 2.87-4.07-4.79-4.55 18.68-22.74 30.88-13.65 54.34 7.43-7.66 16.27 14.36 20.11-9.57 21.07-1.44 13.41 15.8 5.26-2.39 18.2 9.57-2.4 32.08 50.28 32.56-14.37 14.84 4.79 30.17-19.63 54.58 13.41 6.7-20.11 15.32 0 9.58-24.9 22.98-19.15-15.32-21.07 38.3-34.47 19.15-19.15 9.58 55.54 36.39 36.38 26.81 7.66-5.75 21.07 22.51 31.12-3.36 9.1 18.68 3.35 9.09-20.11-15.32-18.19 16.28-37.35 37.83-56.02-5.27-35.43 16.28-4.78 6.7 7.66 9.58-9.58 3.83 31.6 37.34 23.94 9.58-12.45 37.34-8.62 18.2 36.39 21.06-1.91-13.4-23.94 9.57-16.28-18.19-9.58.96-27.77 30.64-20.11 3.35 12.93 33.52 9.1 6.7-16.76-11.97-8.14-4.31-18.19 8.14-23.94 6.7-34.95-16.75-15.33-8.62 3.36-3.83 14.84-11.01.96-2.88 15.32-23.94 5.74-37.82-22.98-.96-22.5-46.44-9.1 2.87-11.49-.48-10.05-9.09-8.14 2.39-10.06-8.62-15.32 15.8-25.85 10.06-4.79-5.27-15.8-14.36-10.54-4.79-11.96-46.92-31.6-41.18-6.71-27.77 7.66-4.79-7.18 3.12-4.31-12.45-7.42-5.27 5.51 5.99 4.07-2.64 4.78-11.01-5.02 2.63-5.99-5.74-4.07 5.98-3.83-4.79-4.55-4.78 0-4.55-8.14-5.27 8.86-2.39-9.1-8.86-1.67 1.2 5.98-15.8 3.36-4.31 10.77-8.14 6.94 0 8.86 8.86 3.59 12.44 1.2 4.31-5.27 8.38.72-.48 11.97-6.7 5.5-6.46-7.66-11.97 7.42 5.26 4.55-9.33 3.35-6.71-3.11-13.4 0-7.66-7.66-14.37-2.87-21.06 17.23-15.32-.95-17.24-6.71-11.49 0-20.11 12.45-7.78-.72-4.07-5.86 8.14-2.16-1.56-4.18-3.83-2.52-5.86 4.67-2.4-.12-.59-2.03-1.92-1.08-1.68 3.23-2.63.12-8.74 7.9-3.47 2.03 1.32 2.4 3.35-.84.96 1.44-1.2 2.99-3.23-.24.96 4.79-3.23 3.35-3.36.96-6.82-3.71-1.67 3.47 5.5 2.27-2.03 2.99-2.64.84-2.39 4.07-14.48-.12-14.85 5.75-3.83-5.03-8.14-.24 2.16-12.93-10.3-3.59-8.85 4.31-10.54-4.07-5.02 2.64.95 11.25-5.02 2.39-6.23 8.86-7.18 8.86-1.68 4.78 10.78-1.43 12.69-3.11 5.5 2.87 2.4 5.98-8.62 3.35 0 5.51-10.54 3.83.24 11.73-18.67 18.67-25.38 23.94 3.12 7.19-39.74 20.1-10.06 10.54 2.88 38.3-58.42 49.79 5.75 8.62-13.41 32.08 18.44 13.41-11.97 21.06 2.63 8.38-6.46 1.68-8.14 1.67-10.06 5.99-1.91 4.31 4.78 3.35-5.26 11.97-.72 1.91z" /></g></g></svg>