<?xml version="1.0" encoding="utf-8"?><svg xmlns="http://www.w3.org/2000/svg" version="1.1" baseProfile="tiny" width="1200" height="800" viewBox="0 0 1200 800"><g><g stroke="#000000" stroke-width=".98" fill="#FFFFFF"><path d="m139.32 562.81l5.35 5.57-2.14 2.78 11.35 4.5-4.28 18 15.42 6.85 22.28-6.85 5.14 12.85 47.13 2.57 20.57-37.7 69.41-11.14 22.27 4.28 39.42-14.57 29.99-8.56 8.14 3-8.14 10.28-10.28 3.85 3 23.57 17.99 5.57 5.57 9-3.85 15.85 12.42 1.28 8.14 16.28 29.99 9.43 35.56 12 21.85.85 28.71 3.86 19.71 6.85 18.85-3 47.56 12 33.42-.43 14.13 9.86 13.71-.86 9.86 10.71 24.42 0 15-2.57 5.14 5.14 11.56.43 8.15 12.43 1.71-15.86 8.57-1.71 12.85-12.43 14.78-3 1.72-8.56 4.49-10.07 5.15-4.29 4.71 1.72 1.07-3.22 4.93-3.21 3.21 6.86 9-10.72 9.21-1.5 12 .22 11.56 3 26.57-2.89 3.1 3.53 2.68-.21.97 5.57 2.03.75 2.36-1.61 1.71 1.28 2.25-1.49 4.39-2.79 1.5-3.96-.96-4.72 8.24-3.96.75 1.45 3.97.59 1.18-2.41 2.3 0-.91-3.7 11.35 2.36 7.07-.86 11.57-5.35 6.64.85 9.85 6.86 6 1.07 3.64 3.64 4.93 2.14-1.07-7.71-7.28-12.85 1.07-18.43 19.17-8.89 10.07-8.24 3-7.72 3.43.65 4.17-2.79-.32-2.89 5.14-.11-.1-5.35 1.82-6.22 1.28.33.86 3 6.53.32 1.5-2.79 3.43 2.25 4.82-1.18 2.78 2.57 7.61-.42 5.78-1.4-9.85-8.14 11.03-5.67-6.53-2.58-2.36-5.56 6.54-6.11 4.71-1.71-3-3.54-9.21.86 1.82-4.29-2.68-5.78-2.78.64-.75-6.64 6.85-10.07 2.79-6.42-6.86-14.78 1.39-8.36 0-6.1 5.47.96-.33 1.71 1.93 2.04 3.54-4.29 6.96.65 15.53-13.39-1.71-10.29 9.42-5.99-6-6.86-8.56-13.71-29.14-8.57 4.29-6 11.99-13.71 12-.85 15.42 2.57 4.29 11.99 11.14.86 7.71-7.71 2.57 6.85 31.7-6.85 0-19.28-10.71-15.85 11.14-2.57 1.72-12.86 1.28-8.99 8.57-8.57-12-6.86-3-23.13-13.71-11.14-9.42-22.28-11.57-20.14 3-19.71 13.71-20.99-3.86-21.42-3.42-20.57-25.71-5.57-8.14 3-8.14-12.42-13.71-6.43-11.14.43-12.85 16.71-46.28-2.57-20.13-16.71-24.85-14.14-6.86 5.57-10.49-.43-11.79-9.43-21.63-11.99-29.78-9.86-5.14 6.86-14.57 2.57-1.28-10.71-24.42-4.72-5.57 59.99-21.43-6.43-1.28 12.85-12.86 8.14-7.71 26.57-16.28-6.43-19.28-6.85-14.56 19.7-12.86-5.14-23.13-2.57-14.57-8.57 2.14-5.99-7.28-12.43-27.42-14.14-.86 32.13-14.57 26.14-34.27-16.71-9.43 9.43-8.57 44.13-57.41 24.42-36.84 26.56-6.86 14.57 28.28 28.27 10.28 25.71-9 17.57-3 12.85 15.86-.86 8.57 8.14-1.29 22.28-4.28 13.29-4.72 15.42-6-1.29-25.27-18.85-5.14-7.71 7.71-6-7.71-7.71 0-6-22.28 0-8.57 6.86-11.14 2.57-11.14-14.57-29.99 0 4.28-9.43-16.28 8.57 6.86 17.14-30.85-.86-26.57 7.72-32.56.85-7.92 17.14-22.28.43-7.07 9 4.28 7.28-6-1.71-13.28 3.85-1.28 7.71-9.43.43-.43-8.14-11.56 3.86-15.86 5.14-12.42-1.71 2.57-3.86-3.43-7.28-6.43-7.29-8.14-2.57 6.43-4.28-4.71-4.71-8.57 1.71-12.85-1.71-7.29-5.15-15.42-3.42-4.29 8.14-17.99-3.43-4.28 10.28 5.14 4.71.85 12.43-17.99 21.85-14.78 12.64-12.86 2.57.43-5.36 5.14-5.14-1.07-3.42 3.64-12.64-7.06-.65-3 4.5-7.29-.64-2.35 3.86-4.07-12.64 4.07-2.79-2.36-8.35-2.57.43-4.5-7.07-5.57 1.07-1.71-4.72-4.72-4.28.22-5.57-7.07 3.43-1.93-3.22-4.93 0-.21 3.43-9.21-4.07 1.5-6.42-3-4.93-5.14.43-6 13.49-26.78 7.07 1.72 3.86 13.49 8.57-1.93 9.42 3.64 6.43-8.78 4.71-13.28 21 6 6.42-2.57 3.86 5.35 3.85-2.14 8.14 9.43 10.29-1.72 9.85-1.28 7.28 9.85-1.71 30.85 9.86 0 18.85 15.85 4.71 10.71 9 10.29 7.71 17.99-5.14 3.43-15.43 9 2.57.42-5.14 5.14-9.85 7.72-2.57z" /></g></g></svg>